<svg width="116" height="15" viewBox="0 0 116 15" fill="none" xmlns="http://www.w3.org/2000/svg">
<path d="M0.740656 10.868C0.647323 10.868 0.577323 10.8447 0.530656 10.798C0.493323 10.7607 0.488656 10.714 0.516656 10.658L4.67466 0.928C4.72132 0.834666 4.78666 0.773999 4.87066 0.746C4.96399 0.708666 5.08066 0.69 5.22066 0.69C5.30466 0.69 5.36066 0.713333 5.38866 0.76C5.42599 0.806666 5.43066 0.862666 5.40266 0.928L1.24466 10.658C1.20732 10.742 1.14666 10.798 1.06266 10.826C0.978656 10.854 0.871323 10.868 0.740656 10.868ZM6.64045 4.036C6.55645 4.036 6.49112 4.022 6.44445 3.994C6.40712 3.966 6.38845 3.92867 6.38845 3.882C6.38845 3.798 6.45379 3.742 6.58445 3.714C6.94845 3.63933 7.26112 3.48067 7.52245 3.238C7.79312 2.986 7.92845 2.636 7.92845 2.188C7.92845 2.06667 7.87245 1.936 7.76045 1.796C7.64845 1.656 7.52245 1.58133 7.38245 1.572C7.17712 1.55333 7.01379 1.49267 6.89245 1.39C6.78045 1.278 6.72445 1.14267 6.72445 0.983999C6.72445 0.797333 6.79912 0.643333 6.94845 0.521999C7.10712 0.400666 7.28912 0.339999 7.49445 0.339999C7.83045 0.339999 8.10579 0.470666 8.32045 0.731999C8.54445 0.983999 8.65645 1.306 8.65645 1.698C8.65645 2.13667 8.54445 2.538 8.32045 2.902C8.09645 3.25667 7.82112 3.53667 7.49445 3.742C7.17712 3.938 6.89245 4.036 6.64045 4.036ZM9.79308 10.042C9.57841 10.042 9.47108 9.99067 9.47108 9.888C9.47108 9.832 9.48974 9.79467 9.52708 9.776C9.57374 9.748 9.62041 9.72467 9.66708 9.706C9.72308 9.68733 9.76508 9.67333 9.79308 9.664C9.97974 9.608 10.1244 9.54267 10.2271 9.468C10.3391 9.384 10.3951 9.258 10.3951 9.09V2.076C10.3951 1.74933 10.3484 1.51133 10.2551 1.362C10.1617 1.21267 9.99841 1.11 9.76508 1.054C9.68108 1.03533 9.63908 0.974666 9.63908 0.872C9.63908 0.778666 9.67641 0.722666 9.75108 0.704C10.0684 0.629333 10.3297 0.554666 10.5351 0.48C10.7497 0.405333 11.0017 0.302666 11.2911 0.172C11.3471 0.143999 11.3891 0.129999 11.4171 0.129999C11.4731 0.129999 11.5011 0.171999 11.5011 0.255999C11.5011 0.321333 11.4777 0.512666 11.4311 0.83C11.3937 1.138 11.3751 1.572 11.3751 2.132V6.724C11.3751 6.808 11.3984 6.85 11.4451 6.85C11.5664 6.85 11.7344 6.75667 11.9491 6.57C12.5837 6.01933 13.0784 5.53867 13.4331 5.128C13.5171 5.03467 13.5591 4.96467 13.5591 4.918C13.5591 4.834 13.4377 4.764 13.1951 4.708C13.1297 4.68933 13.0831 4.67067 13.0551 4.652C13.0364 4.63333 13.0271 4.60533 13.0271 4.568C13.0271 4.52133 13.0551 4.484 13.1111 4.456C13.1671 4.41867 13.2417 4.4 13.3351 4.4H14.0211C14.1517 4.4 14.4131 4.36733 14.8051 4.302C15.0197 4.25533 15.1831 4.232 15.2951 4.232C15.4257 4.232 15.4911 4.27867 15.4911 4.372C15.4911 4.47467 15.3744 4.55867 15.1411 4.624C14.8797 4.69867 14.5717 4.84333 14.2171 5.058C14.1331 5.114 13.8997 5.30067 13.5171 5.618C13.1437 5.926 12.7797 6.234 12.4251 6.542C12.3691 6.598 12.3411 6.64467 12.3411 6.682C12.3411 6.71933 12.3551 6.752 12.3831 6.78C12.7004 7.172 13.0691 7.592 13.4891 8.04C13.9184 8.488 14.2357 8.80533 14.4411 8.992C14.5811 9.132 14.7491 9.26267 14.9451 9.384C15.1504 9.496 15.3324 9.58 15.4911 9.636C15.5284 9.64533 15.5844 9.664 15.6591 9.692C15.7431 9.72 15.8037 9.748 15.8411 9.776C15.8877 9.804 15.9111 9.84133 15.9111 9.888C15.9111 9.99067 15.8177 10.042 15.6311 10.042L14.4971 10.028C13.8624 10.0093 13.3677 10 13.0131 10C12.8451 10 12.7611 9.958 12.7611 9.874C12.7611 9.78067 12.8404 9.706 12.9991 9.65C13.1204 9.61267 13.2137 9.57067 13.2791 9.524C13.3444 9.468 13.3771 9.40267 13.3771 9.328C13.3771 9.28133 13.3444 9.216 13.2791 9.132L11.5851 7.214C11.5291 7.14867 11.4824 7.116 11.4451 7.116C11.3984 7.116 11.3751 7.14867 11.3751 7.214C11.3657 7.39133 11.3611 7.69 11.3611 8.11C11.3611 8.54867 11.3657 8.87533 11.3751 9.09C11.3751 9.26733 11.4171 9.398 11.5011 9.482C11.5851 9.55667 11.7064 9.61733 11.8651 9.664C11.8931 9.67333 11.9351 9.68733 11.9911 9.706C12.0564 9.72467 12.1031 9.748 12.1311 9.776C12.1684 9.804 12.1871 9.84133 12.1871 9.888C12.1871 9.944 12.1497 9.98133 12.0751 10C12.0004 10.028 11.9304 10.042 11.8651 10.042C11.6317 10.042 11.4591 10.028 11.3471 10C11.1977 9.98133 11.0437 9.972 10.8851 9.972C10.7264 9.972 10.5537 9.98133 10.3671 10C10.2271 10.028 10.0357 10.042 9.79308 10.042ZM17.4056 10.196C17.2469 10.196 17.0789 10.1307 16.9016 10C16.7242 9.87867 16.5749 9.72467 16.4536 9.538C16.3416 9.342 16.2856 9.16 16.2856 8.992C16.2856 8.70267 16.3602 8.474 16.5096 8.306C16.6682 8.138 16.9249 7.97933 17.2796 7.83L18.7076 7.242C18.8849 7.16733 18.9922 7.102 19.0296 7.046C19.0669 6.99 19.0902 6.86867 19.0996 6.682L19.1276 5.786C19.1369 5.534 19.0669 5.324 18.9176 5.156C18.7682 4.97867 18.5629 4.89 18.3016 4.89C18.1616 4.89 18.0216 4.91333 17.8816 4.96C17.7416 5.00667 17.6249 5.06733 17.5316 5.142C17.4382 5.20733 17.3916 5.34267 17.3916 5.548L17.4056 5.8C17.4056 5.87467 17.2842 5.97733 17.0416 6.108C16.8082 6.22933 16.6216 6.29 16.4816 6.29C16.4349 6.29 16.3976 6.28067 16.3696 6.262C16.3416 6.234 16.3276 6.20133 16.3276 6.164C16.3276 6.01467 16.3742 5.856 16.4676 5.688C16.5702 5.51067 16.7102 5.34733 16.8876 5.198C17.2049 4.90867 17.5596 4.67067 17.9516 4.484C18.3529 4.29733 18.6936 4.204 18.9736 4.204C19.3096 4.204 19.5849 4.32533 19.7996 4.568C20.0236 4.80133 20.1309 5.09533 20.1216 5.45L20.0516 8.81C20.0422 9.006 20.0842 9.16467 20.1776 9.286C20.2709 9.40733 20.3969 9.468 20.5556 9.468C20.7889 9.468 20.9616 9.41667 21.0736 9.314C21.1202 9.26733 21.1576 9.244 21.1856 9.244C21.2322 9.244 21.2696 9.258 21.2976 9.286C21.3256 9.314 21.3396 9.35133 21.3396 9.398C21.3396 9.43533 21.3256 9.48667 21.2976 9.552C21.2696 9.608 21.2322 9.65933 21.1856 9.706C21.0362 9.85533 20.8729 9.972 20.6956 10.056C20.5276 10.1493 20.3689 10.196 20.2196 10.196C19.7902 10.196 19.4496 9.95333 19.1976 9.468H19.1556C18.8476 9.72 18.5536 9.902 18.2736 10.014C17.9936 10.1353 17.7042 10.196 17.4056 10.196ZM18.0636 9.524C18.3902 9.524 18.6656 9.412 18.8896 9.188C18.9456 9.132 18.9876 9.062 19.0156 8.978C19.0436 8.894 19.0622 8.77267 19.0716 8.614L19.0996 7.928V7.844C19.0996 7.76933 19.0902 7.718 19.0716 7.69C19.0529 7.65267 19.0202 7.634 18.9736 7.634C18.9176 7.634 18.8242 7.65733 18.6936 7.704C18.2269 7.872 17.8909 8.04933 17.6856 8.236C17.4802 8.42267 17.3776 8.60467 17.3776 8.782C17.3776 9.01533 17.4429 9.19733 17.5736 9.328C17.7136 9.45867 17.8769 9.524 18.0636 9.524ZM22.0454 10.042C21.8587 10.042 21.7654 9.99067 21.7654 9.888C21.7654 9.82267 21.7887 9.78067 21.8354 9.762C21.882 9.734 21.966 9.70133 22.0874 9.664C22.442 9.58 22.6194 9.40267 22.6194 9.132V6.122C22.6194 5.842 22.5774 5.618 22.4934 5.45C22.4094 5.27267 22.26 5.16067 22.0454 5.114C22.008 5.10467 21.9754 5.08133 21.9474 5.044C21.9194 5.00667 21.9054 4.96933 21.9054 4.932C21.9054 4.89467 21.9194 4.862 21.9474 4.834C21.9754 4.79667 22.0034 4.77333 22.0314 4.764C22.4047 4.64267 22.8667 4.414 23.4174 4.078C23.52 4.01267 23.59 3.98 23.6274 3.98C23.674 3.98 23.6974 4.01267 23.6974 4.078C23.6974 4.33 23.6834 4.68 23.6554 5.128C23.6554 5.14667 23.6647 5.156 23.6834 5.156C23.9167 4.876 24.178 4.64733 24.4674 4.47C24.7567 4.29267 25.032 4.204 25.2934 4.204C25.4894 4.204 25.648 4.246 25.7694 4.33C25.9 4.414 25.9654 4.52133 25.9654 4.652C25.9654 4.80133 25.9047 4.96 25.7834 5.128C25.6714 5.296 25.55 5.38 25.4194 5.38C25.326 5.38 25.1954 5.338 25.0274 5.254C24.9994 5.24467 24.934 5.22133 24.8314 5.184C24.738 5.14667 24.654 5.128 24.5794 5.128C24.3087 5.128 24.08 5.21667 23.8934 5.394C23.7067 5.57133 23.6134 5.87467 23.6134 6.304V9.132C23.6134 9.25333 23.674 9.356 23.7954 9.44C23.9167 9.51467 24.1034 9.58933 24.3554 9.664C24.4674 9.70133 24.5467 9.734 24.5934 9.762C24.6494 9.79 24.6774 9.832 24.6774 9.888C24.6774 9.99067 24.584 10.042 24.3974 10.042C24.1454 10.042 23.926 10.028 23.7394 10C23.5154 9.98133 23.3287 9.972 23.1794 9.972C23.03 9.972 22.8527 9.98133 22.6474 10C22.498 10.028 22.2974 10.042 22.0454 10.042ZM29.3112 10.196C28.7978 10.196 28.3265 10.0747 27.8972 9.832C27.4772 9.58933 27.1412 9.25333 26.8892 8.824C26.6465 8.39467 26.5252 7.914 26.5252 7.382C26.5252 6.86867 26.6605 6.36467 26.9312 5.87C27.2112 5.37533 27.5845 4.974 28.0512 4.666C28.5272 4.358 29.0405 4.204 29.5912 4.204C30.1232 4.204 30.6085 4.33467 31.0472 4.596C31.4858 4.848 31.8312 5.19333 32.0832 5.632C32.3445 6.06133 32.4752 6.52333 32.4752 7.018C32.4752 7.578 32.3538 8.10067 32.1112 8.586C31.8685 9.07133 31.5092 9.46333 31.0332 9.762C30.5572 10.0513 29.9832 10.196 29.3112 10.196ZM29.6052 9.776C30.3052 9.776 30.7858 9.51933 31.0472 9.006C31.2338 8.642 31.3272 8.09133 31.3272 7.354C31.3272 6.906 31.2432 6.472 31.0752 6.052C30.9072 5.632 30.6738 5.29133 30.3752 5.03C30.0765 4.76867 29.7358 4.638 29.3532 4.638C29.0825 4.638 28.8492 4.68 28.6532 4.764C28.4572 4.848 28.2798 4.99267 28.1212 5.198C27.9532 5.41267 27.8365 5.67867 27.7712 5.996C27.7058 6.304 27.6732 6.65867 27.6732 7.06C27.6732 7.52667 27.7572 7.97 27.9252 8.39C28.0932 8.80067 28.3218 9.13667 28.6112 9.398C28.9098 9.65 29.2412 9.776 29.6052 9.776ZM33.3077 10.042C33.1211 10.042 33.0277 10 33.0277 9.916C33.0277 9.85067 33.0511 9.804 33.0977 9.776C33.1537 9.73867 33.2377 9.70133 33.3497 9.664C33.5551 9.59867 33.7044 9.538 33.7977 9.482C33.9004 9.41667 33.9517 9.3 33.9517 9.132V2.076C33.9517 1.488 33.7371 1.14733 33.3077 1.054C33.2704 1.04467 33.2424 1.026 33.2237 0.998C33.2051 0.960666 33.1957 0.918666 33.1957 0.872C33.1957 0.778666 33.2284 0.722666 33.2937 0.704C33.6577 0.619999 34.0731 0.48 34.5397 0.284L34.8757 0.158C34.9131 0.139333 34.9411 0.129999 34.9597 0.129999C34.9784 0.129999 34.9924 0.143999 35.0017 0.172C35.0204 0.190666 35.0297 0.209333 35.0297 0.228C35.0297 0.284 35.0111 0.461333 34.9737 0.76C34.9457 1.05867 34.9317 1.516 34.9317 2.132V9.132C34.9317 9.3 34.9784 9.41667 35.0717 9.482C35.1744 9.538 35.3284 9.59867 35.5337 9.664C35.6457 9.70133 35.7251 9.73867 35.7717 9.776C35.8277 9.804 35.8557 9.85067 35.8557 9.916C35.8557 10 35.7624 10.042 35.5757 10.042C35.3331 10.042 35.1324 10.028 34.9737 10C34.7684 9.98133 34.5911 9.972 34.4417 9.972C34.2924 9.972 34.1151 9.98133 33.9097 10C33.7604 10.028 33.5597 10.042 33.3077 10.042ZM36.741 10.042C36.5543 10.042 36.461 10 36.461 9.916C36.461 9.85067 36.4843 9.804 36.531 9.776C36.587 9.73867 36.671 9.70133 36.783 9.664C36.9883 9.59867 37.1377 9.53333 37.231 9.468C37.3337 9.40267 37.385 9.286 37.385 9.118V5.366C37.385 5.16067 37.343 5.00667 37.259 4.904C37.175 4.80133 37.0443 4.736 36.867 4.708C36.7737 4.68933 36.6943 4.66133 36.629 4.624C36.573 4.57733 36.545 4.52133 36.545 4.456C36.545 4.372 36.6383 4.33 36.825 4.33C37.0583 4.33 37.2403 4.344 37.371 4.372C37.539 4.39067 37.6977 4.4 37.847 4.4C38.0057 4.4 38.1783 4.39067 38.365 4.372C38.5237 4.344 38.7243 4.33 38.967 4.33C39.1537 4.33 39.247 4.372 39.247 4.456C39.247 4.52133 39.2143 4.57733 39.149 4.624C39.093 4.66133 39.0183 4.68933 38.925 4.708C38.5517 4.77333 38.365 4.99267 38.365 5.366V9.118C38.365 9.286 38.4117 9.40267 38.505 9.468C38.6077 9.53333 38.7617 9.59867 38.967 9.664C39.079 9.70133 39.1583 9.73867 39.205 9.776C39.261 9.804 39.289 9.85067 39.289 9.916C39.289 10 39.1957 10.042 39.009 10.042C38.7663 10.042 38.5657 10.028 38.407 10C38.2017 9.98133 38.0243 9.972 37.875 9.972C37.7257 9.972 37.5483 9.98133 37.343 10C37.1937 10.028 36.993 10.042 36.741 10.042ZM41.641 10.196C41.3517 10.196 41.081 10.1493 40.829 10.056C40.577 9.972 40.3623 9.85067 40.185 9.692C40.1103 9.54267 40.059 9.16933 40.031 8.572C40.031 8.488 40.0917 8.446 40.213 8.446C40.3157 8.446 40.3717 8.47867 40.381 8.544C40.493 8.97333 40.675 9.29533 40.927 9.51C41.1883 9.71533 41.4683 9.818 41.767 9.818C42.0377 9.818 42.2663 9.72933 42.453 9.552C42.649 9.36533 42.747 9.13667 42.747 8.866C42.747 8.62333 42.663 8.41333 42.495 8.236C42.3363 8.04933 42.0423 7.82067 41.613 7.55C41.1277 7.25133 40.7823 6.976 40.577 6.724C40.381 6.46267 40.283 6.15933 40.283 5.814C40.283 5.34733 40.4463 4.96467 40.773 4.666C41.0997 4.358 41.5663 4.204 42.173 4.204C42.4343 4.204 42.6583 4.232 42.845 4.288C43.041 4.33467 43.1903 4.39533 43.293 4.47C43.3677 4.57267 43.4283 4.736 43.475 4.96C43.531 5.17467 43.559 5.38 43.559 5.576C43.559 5.64133 43.5123 5.674 43.419 5.674C43.363 5.674 43.307 5.66467 43.251 5.646C43.195 5.618 43.1623 5.58533 43.153 5.548C43.0223 5.23067 42.8637 4.99267 42.677 4.834C42.4997 4.67533 42.2803 4.596 42.019 4.596C41.7763 4.596 41.5663 4.67067 41.389 4.82C41.2117 4.96933 41.123 5.17 41.123 5.422C41.123 5.646 41.1883 5.842 41.319 6.01C41.459 6.16867 41.7157 6.35533 42.089 6.57C42.677 6.906 43.0923 7.20933 43.335 7.48C43.5777 7.74133 43.699 8.07733 43.699 8.488C43.699 8.992 43.5077 9.40267 43.125 9.72C42.7423 10.0373 42.2477 10.196 41.641 10.196ZM47.0511 14.032C46.7245 14.032 46.4025 13.9713 46.0851 13.85C45.7678 13.7287 45.6091 13.5933 45.6091 13.444C45.6091 13.2293 45.6605 13.0427 45.7631 12.884C45.8658 12.7347 45.9918 12.66 46.1411 12.66C46.2438 12.66 46.4071 12.772 46.6311 12.996C46.7991 13.164 46.9485 13.29 47.0791 13.374C47.2098 13.4673 47.3545 13.514 47.5131 13.514C47.8771 13.514 48.1338 13.3227 48.2831 12.94C48.4418 12.5667 48.5211 12.1187 48.5211 11.596C48.5211 11.0733 48.4838 10.49 48.4091 9.846C48.3345 9.202 48.2225 8.404 48.0731 7.452L48.0311 7.144C47.8818 6.192 47.7698 5.44067 47.6951 4.89C47.6298 4.33933 47.5971 3.868 47.5971 3.476C47.5971 2.45867 47.8071 1.64667 48.2271 1.04C48.6471 0.424 49.2538 0.116 50.0471 0.116C50.4391 0.116 50.7798 0.167333 51.0691 0.269999C51.3678 0.372666 51.5171 0.55 51.5171 0.802C51.5171 0.960666 51.4611 1.11467 51.3491 1.264C51.2371 1.404 51.1158 1.474 50.9851 1.474C50.9105 1.474 50.8311 1.446 50.7471 1.39C50.6725 1.334 50.5978 1.27333 50.5231 1.208C50.4485 1.13333 50.3971 1.082 50.3691 1.054C50.0985 0.802 49.8465 0.676 49.6131 0.676C49.2491 0.676 48.9831 0.844 48.8151 1.18C48.6565 1.50667 48.5771 2.01067 48.5771 2.692C48.5771 3.26133 48.6191 3.896 48.7031 4.596C48.7965 5.296 48.9318 6.234 49.1091 7.41C49.2398 8.222 49.3378 8.90333 49.4031 9.454C49.4685 9.99533 49.5011 10.448 49.5011 10.812C49.5011 11.4093 49.4031 11.9507 49.2071 12.436C49.0205 12.9307 48.7405 13.318 48.3671 13.598C48.0031 13.8873 47.5645 14.032 47.0511 14.032ZM52.0911 10.196C51.9325 10.196 51.7645 10.1307 51.5871 10C51.4098 9.87867 51.2605 9.72467 51.1391 9.538C51.0271 9.342 50.9711 9.16 50.9711 8.992C50.9711 8.70267 51.0458 8.474 51.1951 8.306C51.3538 8.138 51.6105 7.97933 51.9651 7.83L53.3931 7.242C53.5705 7.16733 53.6778 7.102 53.7151 7.046C53.7525 6.99 53.7758 6.86867 53.7851 6.682L53.8131 5.786C53.8225 5.534 53.7525 5.324 53.6031 5.156C53.4538 4.97867 53.2485 4.89 52.9871 4.89C52.8471 4.89 52.7071 4.91333 52.5671 4.96C52.4271 5.00667 52.3105 5.06733 52.2171 5.142C52.1238 5.20733 52.0771 5.34267 52.0771 5.548L52.0911 5.8C52.0911 5.87467 51.9698 5.97733 51.7271 6.108C51.4938 6.22933 51.3071 6.29 51.1671 6.29C51.1205 6.29 51.0831 6.28067 51.0551 6.262C51.0271 6.234 51.0131 6.20133 51.0131 6.164C51.0131 6.01467 51.0598 5.856 51.1531 5.688C51.2558 5.51067 51.3958 5.34733 51.5731 5.198C51.8905 4.90867 52.2451 4.67067 52.6371 4.484C53.0385 4.29733 53.3791 4.204 53.6591 4.204C53.9951 4.204 54.2705 4.32533 54.4851 4.568C54.7091 4.80133 54.8165 5.09533 54.8071 5.45L54.7371 8.81C54.7278 9.006 54.7698 9.16467 54.8631 9.286C54.9565 9.40733 55.0825 9.468 55.2411 9.468C55.4745 9.468 55.6471 9.41667 55.7591 9.314C55.8058 9.26733 55.8431 9.244 55.8711 9.244C55.9178 9.244 55.9551 9.258 55.9831 9.286C56.0111 9.314 56.0251 9.35133 56.0251 9.398C56.0251 9.43533 56.0111 9.48667 55.9831 9.552C55.9551 9.608 55.9178 9.65933 55.8711 9.706C55.7218 9.85533 55.5585 9.972 55.3811 10.056C55.2131 10.1493 55.0545 10.196 54.9051 10.196C54.4758 10.196 54.1351 9.95333 53.8831 9.468H53.8411C53.5331 9.72 53.2391 9.902 52.9591 10.014C52.6791 10.1353 52.3898 10.196 52.0911 10.196ZM52.7491 9.524C53.0758 9.524 53.3511 9.412 53.5751 9.188C53.6311 9.132 53.6731 9.062 53.7011 8.978C53.7291 8.894 53.7478 8.77267 53.7571 8.614L53.7851 7.928V7.844C53.7851 7.76933 53.7758 7.718 53.7571 7.69C53.7385 7.65267 53.7058 7.634 53.6591 7.634C53.6031 7.634 53.5098 7.65733 53.3791 7.704C52.9125 7.872 52.5765 8.04933 52.3711 8.236C52.1658 8.42267 52.0631 8.60467 52.0631 8.782C52.0631 9.01533 52.1285 9.19733 52.2591 9.328C52.3991 9.45867 52.5625 9.524 52.7491 9.524ZM56.7309 10.042C56.5443 10.042 56.4509 9.99067 56.4509 9.888C56.4509 9.82267 56.4743 9.78067 56.5209 9.762C56.5676 9.734 56.6516 9.70133 56.7729 9.664C57.1276 9.58 57.3049 9.40267 57.3049 9.132V6.122C57.3049 5.842 57.2629 5.618 57.1789 5.45C57.0949 5.27267 56.9456 5.16067 56.7309 5.114C56.6936 5.10467 56.6609 5.08133 56.6329 5.044C56.6049 5.00667 56.5909 4.96933 56.5909 4.932C56.5909 4.89467 56.6049 4.862 56.6329 4.834C56.6609 4.79667 56.6889 4.77333 56.7169 4.764C57.0903 4.64267 57.5523 4.414 58.1029 4.078C58.2056 4.01267 58.2756 3.98 58.3129 3.98C58.3596 3.98 58.3829 4.01267 58.3829 4.078C58.3829 4.33 58.3689 4.68 58.3409 5.128C58.3409 5.14667 58.3503 5.156 58.3689 5.156C58.6023 4.876 58.8636 4.64733 59.1529 4.47C59.4423 4.29267 59.7176 4.204 59.9789 4.204C60.1749 4.204 60.3336 4.246 60.4549 4.33C60.5856 4.414 60.6509 4.52133 60.6509 4.652C60.6509 4.80133 60.5903 4.96 60.4689 5.128C60.3569 5.296 60.2356 5.38 60.1049 5.38C60.0116 5.38 59.8809 5.338 59.7129 5.254C59.6849 5.24467 59.6196 5.22133 59.5169 5.184C59.4236 5.14667 59.3396 5.128 59.2649 5.128C58.9943 5.128 58.7656 5.21667 58.5789 5.394C58.3923 5.57133 58.2989 5.87467 58.2989 6.304V9.132C58.2989 9.25333 58.3596 9.356 58.4809 9.44C58.6023 9.51467 58.7889 9.58933 59.0409 9.664C59.1529 9.70133 59.2323 9.734 59.2789 9.762C59.3349 9.79 59.3629 9.832 59.3629 9.888C59.3629 9.99067 59.2696 10.042 59.0829 10.042C58.8309 10.042 58.6116 10.028 58.4249 10C58.2009 9.98133 58.0143 9.972 57.8649 9.972C57.7156 9.972 57.5383 9.98133 57.3329 10C57.1836 10.028 56.9829 10.042 56.7309 10.042ZM62.3587 10.196C62.2 10.196 62.032 10.1307 61.8547 10C61.6774 9.87867 61.528 9.72467 61.4067 9.538C61.2947 9.342 61.2387 9.16 61.2387 8.992C61.2387 8.70267 61.3134 8.474 61.4627 8.306C61.6214 8.138 61.878 7.97933 62.2327 7.83L63.6607 7.242C63.838 7.16733 63.9454 7.102 63.9827 7.046C64.02 6.99 64.0434 6.86867 64.0527 6.682L64.0807 5.786C64.09 5.534 64.02 5.324 63.8707 5.156C63.7214 4.97867 63.516 4.89 63.2547 4.89C63.1147 4.89 62.9747 4.91333 62.8347 4.96C62.6947 5.00667 62.578 5.06733 62.4847 5.142C62.3914 5.20733 62.3447 5.34267 62.3447 5.548L62.3587 5.8C62.3587 5.87467 62.2374 5.97733 61.9947 6.108C61.7614 6.22933 61.5747 6.29 61.4347 6.29C61.388 6.29 61.3507 6.28067 61.3227 6.262C61.2947 6.234 61.2807 6.20133 61.2807 6.164C61.2807 6.01467 61.3274 5.856 61.4207 5.688C61.5234 5.51067 61.6634 5.34733 61.8407 5.198C62.158 4.90867 62.5127 4.67067 62.9047 4.484C63.306 4.29733 63.6467 4.204 63.9267 4.204C64.2627 4.204 64.538 4.32533 64.7527 4.568C64.9767 4.80133 65.084 5.09533 65.0747 5.45L65.0047 8.81C64.9954 9.006 65.0374 9.16467 65.1307 9.286C65.224 9.40733 65.35 9.468 65.5087 9.468C65.742 9.468 65.9147 9.41667 66.0267 9.314C66.0734 9.26733 66.1107 9.244 66.1387 9.244C66.1854 9.244 66.2227 9.258 66.2507 9.286C66.2787 9.314 66.2927 9.35133 66.2927 9.398C66.2927 9.43533 66.2787 9.48667 66.2507 9.552C66.2227 9.608 66.1854 9.65933 66.1387 9.706C65.9894 9.85533 65.826 9.972 65.6487 10.056C65.4807 10.1493 65.322 10.196 65.1727 10.196C64.7434 10.196 64.4027 9.95333 64.1507 9.468H64.1087C63.8007 9.72 63.5067 9.902 63.2267 10.014C62.9467 10.1353 62.6574 10.196 62.3587 10.196ZM63.0167 9.524C63.3434 9.524 63.6187 9.412 63.8427 9.188C63.8987 9.132 63.9407 9.062 63.9687 8.978C63.9967 8.894 64.0154 8.77267 64.0247 8.614L64.0527 7.928V7.844C64.0527 7.76933 64.0434 7.718 64.0247 7.69C64.006 7.65267 63.9734 7.634 63.9267 7.634C63.8707 7.634 63.7774 7.65733 63.6467 7.704C63.18 7.872 62.844 8.04933 62.6387 8.236C62.4334 8.42267 62.3307 8.60467 62.3307 8.782C62.3307 9.01533 62.396 9.19733 62.5267 9.328C62.6667 9.45867 62.83 9.524 63.0167 9.524ZM66.8725 13.99C66.6765 13.99 66.5785 13.948 66.5785 13.864C66.5785 13.7987 66.6018 13.7473 66.6485 13.71C66.7045 13.682 66.7885 13.6493 66.9005 13.612C67.1058 13.5467 67.2552 13.4813 67.3485 13.416C67.4512 13.36 67.5025 13.248 67.5025 13.08V5.982C67.5025 5.82333 67.4465 5.62733 67.3345 5.394C67.2225 5.15133 67.0638 5.00667 66.8585 4.96C66.8212 4.95067 66.7932 4.932 66.7745 4.904C66.7558 4.86667 66.7465 4.82467 66.7465 4.778C66.7465 4.68467 66.7792 4.62867 66.8445 4.61C67.2552 4.51667 67.6145 4.40933 67.9225 4.288C68.2305 4.15733 68.4125 4.078 68.4685 4.05L68.4965 4.036C68.5152 4.036 68.5338 4.05 68.5525 4.078C68.5712 4.106 68.5805 4.134 68.5805 4.162L68.5525 4.526C68.5245 4.694 68.5105 4.85267 68.5105 5.002C68.5105 5.07667 68.5152 5.11867 68.5245 5.128C68.6272 5.02533 68.8045 4.904 69.0565 4.764C69.3178 4.61467 69.6025 4.484 69.9105 4.372C70.2278 4.26 70.5218 4.204 70.7925 4.204C71.2498 4.204 71.6512 4.33 71.9965 4.582C72.3512 4.834 72.6218 5.16533 72.8085 5.576C72.9952 5.97733 73.0885 6.402 73.0885 6.85C73.0885 7.40067 72.9485 7.93733 72.6685 8.46C72.3885 8.97333 72.0058 9.39333 71.5205 9.72C71.0352 10.0373 70.5078 10.196 69.9385 10.196C69.7332 10.196 69.4812 10.1493 69.1825 10.056C68.8838 9.972 68.6692 9.86933 68.5385 9.748C68.5198 9.748 68.5058 9.84133 68.4965 10.028C68.4872 10.2147 68.4825 10.3593 68.4825 10.462V13.08C68.4825 13.22 68.5432 13.3227 68.6645 13.388C68.7858 13.4627 68.9072 13.514 69.0285 13.542C69.1592 13.5793 69.2478 13.6027 69.2945 13.612C69.4065 13.6493 69.4858 13.682 69.5325 13.71C69.5885 13.7473 69.6165 13.7987 69.6165 13.864C69.6165 13.948 69.5138 13.99 69.3085 13.99C69.0565 13.99 68.8232 13.976 68.6085 13.948C68.3658 13.9293 68.1605 13.92 67.9925 13.92C67.8432 13.92 67.6658 13.9293 67.4605 13.948C67.3112 13.976 67.1152 13.99 66.8725 13.99ZM70.1485 9.762C70.3725 9.762 70.6245 9.68267 70.9045 9.524C71.1938 9.356 71.4412 9.08533 71.6465 8.712C71.8612 8.33867 71.9685 7.86733 71.9685 7.298C71.9685 6.35533 71.7632 5.71133 71.3525 5.366C70.9512 5.01133 70.5218 4.834 70.0645 4.834C69.8592 4.834 69.6352 4.88067 69.3925 4.974C69.1498 5.058 68.9445 5.16067 68.7765 5.282C68.6085 5.40333 68.5245 5.49667 68.5245 5.562C68.5245 5.982 68.5152 6.472 68.4965 7.032C68.4872 7.21867 68.4825 7.43333 68.4825 7.676C68.4825 8.04 68.5665 8.38533 68.7345 8.712C68.9025 9.02933 69.1172 9.286 69.3785 9.482C69.6398 9.66867 69.8965 9.762 70.1485 9.762ZM74.1883 10.042C74.0016 10.042 73.9083 9.99067 73.9083 9.888C73.9083 9.82267 73.9316 9.78067 73.9783 9.762C74.0249 9.734 74.1089 9.70133 74.2303 9.664C74.4263 9.61733 74.5756 9.56133 74.6783 9.496C74.7809 9.42133 74.8323 9.3 74.8323 9.132V6.122C74.8323 5.82333 74.7996 5.59467 74.7343 5.436C74.6689 5.27733 74.5289 5.17 74.3143 5.114C74.2209 5.086 74.1743 5.02533 74.1743 4.932C74.1743 4.82933 74.2163 4.77333 74.3003 4.764C74.5896 4.68933 74.8323 4.596 75.0283 4.484C75.2336 4.372 75.4576 4.22733 75.7003 4.05C75.7656 4.00333 75.8169 3.98 75.8543 3.98C75.9009 3.98 75.9243 4.01267 75.9243 4.078L75.8963 4.372C75.8869 4.44667 75.8776 4.54 75.8683 4.652C75.8589 4.75467 75.8543 4.862 75.8543 4.974C75.8543 5.06733 75.8636 5.12333 75.8823 5.142C76.2183 4.82467 76.5683 4.59133 76.9323 4.442C77.2963 4.28333 77.6976 4.204 78.1363 4.204C78.5843 4.204 78.9576 4.39067 79.2563 4.764C79.5643 5.13733 79.7183 5.59933 79.7183 6.15V9.132C79.7183 9.3 79.7649 9.41667 79.8583 9.482C79.9609 9.538 80.1149 9.59867 80.3203 9.664C80.4323 9.70133 80.5116 9.73867 80.5583 9.776C80.6143 9.804 80.6423 9.85067 80.6423 9.916C80.6423 10 80.5489 10.042 80.3623 10.042C80.1103 10.042 79.9096 10.028 79.7603 10C79.5736 9.98133 79.4009 9.972 79.2423 9.972C79.0929 9.972 78.9156 9.98133 78.7103 10C78.5609 10.028 78.3556 10.042 78.0943 10.042C77.9076 10.042 77.8143 10 77.8143 9.916C77.8143 9.85067 77.8376 9.804 77.8843 9.776C77.9403 9.73867 78.0243 9.70133 78.1363 9.664C78.3416 9.59867 78.4909 9.538 78.5843 9.482C78.6869 9.41667 78.7383 9.3 78.7383 9.132V6.192C78.7383 5.79067 78.6216 5.47333 78.3883 5.24C78.1643 5.00667 77.8609 4.88533 77.4783 4.876C76.8996 4.876 76.3816 5.06267 75.9243 5.436C75.8496 5.51067 75.8123 5.618 75.8123 5.758V9.132C75.8123 9.3 75.8636 9.42133 75.9663 9.496C76.0689 9.56133 76.2183 9.61733 76.4143 9.664C76.5263 9.692 76.6056 9.72467 76.6523 9.762C76.7083 9.79 76.7363 9.832 76.7363 9.888C76.7363 9.99067 76.6429 10.042 76.4563 10.042C76.2136 10.042 76.0129 10.028 75.8543 10C75.6489 9.98133 75.4716 9.972 75.3223 9.972C75.1729 9.972 74.9956 9.98133 74.7903 10C74.6409 10.028 74.4403 10.042 74.1883 10.042ZM83.4888 10.196C83.0408 10.196 82.6534 10.112 82.3268 9.944C82.0001 9.776 81.7481 9.57067 81.5708 9.328C81.4028 9.076 81.3188 8.82867 81.3188 8.586C81.3188 8.14733 81.4401 7.858 81.6828 7.718C81.9254 7.56867 82.2568 7.494 82.6768 7.494H84.8468C84.9588 7.494 85.0288 7.466 85.0568 7.41C85.0848 7.354 85.0988 7.20933 85.0988 6.976C85.0988 6.40667 84.9354 5.926 84.6088 5.534C84.2914 5.13267 83.8761 4.932 83.3628 4.932C83.0548 4.932 82.7561 4.99267 82.4668 5.114C82.1868 5.23533 81.9581 5.408 81.7808 5.632C81.7341 5.67867 81.6921 5.702 81.6548 5.702C81.6081 5.702 81.5661 5.68333 81.5288 5.646C81.5008 5.59933 81.4868 5.54333 81.4868 5.478C81.4868 5.34733 81.5894 5.17933 81.7948 4.974C82.0001 4.76867 82.2754 4.59133 82.6208 4.442C82.9661 4.28333 83.3441 4.204 83.7548 4.204C84.2121 4.204 84.6228 4.33 84.9868 4.582C85.3601 4.82467 85.6494 5.156 85.8548 5.576C86.0694 5.996 86.1768 6.444 86.1768 6.92C86.1768 7.47067 86.0554 7.998 85.8128 8.502C85.5794 9.006 85.2574 9.41667 84.8468 9.734C84.4361 10.042 83.9834 10.196 83.4888 10.196ZM83.6428 9.762C83.9788 9.762 84.2728 9.61267 84.5248 9.314C84.7861 9.01533 84.9448 8.684 85.0008 8.32C85.0194 8.208 85.0288 8.12867 85.0288 8.082C85.0288 7.97933 84.9868 7.928 84.9028 7.928H83.6428C83.2041 7.928 82.8634 7.95133 82.6208 7.998C82.5554 8.00733 82.5088 8.10067 82.4808 8.278C82.4621 8.446 82.4528 8.59533 82.4528 8.726C82.4528 8.87533 82.5041 9.034 82.6068 9.202C82.7188 9.36067 82.8634 9.496 83.0408 9.608C83.2274 9.71067 83.4281 9.762 83.6428 9.762ZM89.3159 10.196C88.8493 10.196 88.4899 10.056 88.2379 9.776C87.9859 9.48667 87.8599 9.07133 87.8599 8.53V5.282C87.8599 5.198 87.8273 5.142 87.7619 5.114C87.7059 5.086 87.5893 5.072 87.4119 5.072H87.3279C87.2813 5.072 87.2393 5.044 87.2019 4.988C87.1739 4.932 87.1599 4.86667 87.1599 4.792C87.1599 4.77333 87.1693 4.75 87.1879 4.722C87.2159 4.68467 87.2393 4.65667 87.2579 4.638C87.7619 4.28333 88.1773 3.91 88.5039 3.518C88.5413 3.47133 88.5786 3.434 88.6159 3.406C88.6533 3.36867 88.6953 3.35 88.7419 3.35C88.8726 3.35 88.9333 3.40133 88.9239 3.504L88.8539 4.134V4.19C88.8539 4.274 88.8819 4.33 88.9379 4.358C88.9939 4.386 89.0779 4.4 89.1899 4.4H90.7859C90.8233 4.4 90.8559 4.43267 90.8839 4.498C90.9119 4.554 90.9259 4.624 90.9259 4.708C90.9259 4.792 90.9119 4.876 90.8839 4.96C90.8559 5.03467 90.8233 5.072 90.7859 5.072H89.3999C89.1479 5.072 88.9893 5.09067 88.9239 5.128C88.8679 5.16533 88.8399 5.27733 88.8399 5.464V8.222C88.8399 8.60467 88.9193 8.90333 89.0779 9.118C89.2366 9.32333 89.4653 9.426 89.7639 9.426C90.0253 9.426 90.2306 9.40733 90.3799 9.37C90.5386 9.33267 90.6786 9.26733 90.7999 9.174L90.8559 9.146C90.9213 9.146 90.9539 9.21133 90.9539 9.342C90.9539 9.398 90.8699 9.50067 90.7019 9.65C90.5339 9.79 90.3239 9.916 90.0719 10.028C89.8293 10.14 89.5773 10.196 89.3159 10.196ZM93.0883 10.196C92.7989 10.196 92.5283 10.1493 92.2763 10.056C92.0243 9.972 91.8096 9.85067 91.6323 9.692C91.5576 9.54267 91.5063 9.16933 91.4783 8.572C91.4783 8.488 91.5389 8.446 91.6603 8.446C91.7629 8.446 91.8189 8.47867 91.8283 8.544C91.9403 8.97333 92.1223 9.29533 92.3743 9.51C92.6356 9.71533 92.9156 9.818 93.2143 9.818C93.4849 9.818 93.7136 9.72933 93.9003 9.552C94.0963 9.36533 94.1943 9.13667 94.1943 8.866C94.1943 8.62333 94.1103 8.41333 93.9423 8.236C93.7836 8.04933 93.4896 7.82067 93.0603 7.55C92.5749 7.25133 92.2296 6.976 92.0243 6.724C91.8283 6.46267 91.7303 6.15933 91.7303 5.814C91.7303 5.34733 91.8936 4.96467 92.2203 4.666C92.5469 4.358 93.0136 4.204 93.6203 4.204C93.8816 4.204 94.1056 4.232 94.2923 4.288C94.4883 4.33467 94.6376 4.39533 94.7403 4.47C94.8149 4.57267 94.8756 4.736 94.9223 4.96C94.9783 5.17467 95.0063 5.38 95.0063 5.576C95.0063 5.64133 94.9596 5.674 94.8663 5.674C94.8103 5.674 94.7543 5.66467 94.6983 5.646C94.6423 5.618 94.6096 5.58533 94.6003 5.548C94.4696 5.23067 94.3109 4.99267 94.1243 4.834C93.9469 4.67533 93.7276 4.596 93.4663 4.596C93.2236 4.596 93.0136 4.67067 92.8363 4.82C92.6589 4.96933 92.5703 5.17 92.5703 5.422C92.5703 5.646 92.6356 5.842 92.7663 6.01C92.9063 6.16867 93.1629 6.35533 93.5363 6.57C94.1243 6.906 94.5396 7.20933 94.7823 7.48C95.0249 7.74133 95.1463 8.07733 95.1463 8.488C95.1463 8.992 94.9549 9.40267 94.5723 9.72C94.1896 10.0373 93.6949 10.196 93.0883 10.196ZM96.1857 10.042C95.971 10.042 95.8637 9.99067 95.8637 9.888C95.8637 9.832 95.8823 9.79467 95.9197 9.776C95.9663 9.748 96.013 9.72467 96.0597 9.706C96.1157 9.68733 96.1577 9.67333 96.1857 9.664C96.3723 9.608 96.517 9.54267 96.6197 9.468C96.7317 9.384 96.7877 9.258 96.7877 9.09V2.076C96.7877 1.74933 96.741 1.51133 96.6477 1.362C96.5543 1.21267 96.391 1.11 96.1577 1.054C96.0737 1.03533 96.0317 0.974666 96.0317 0.872C96.0317 0.778666 96.069 0.722666 96.1437 0.704C96.461 0.629333 96.7223 0.554666 96.9277 0.48C97.1423 0.405333 97.3943 0.302666 97.6837 0.172C97.7397 0.143999 97.7817 0.129999 97.8097 0.129999C97.8657 0.129999 97.8937 0.171999 97.8937 0.255999C97.8937 0.321333 97.8703 0.512666 97.8237 0.83C97.7863 1.138 97.7677 1.572 97.7677 2.132V6.724C97.7677 6.808 97.791 6.85 97.8377 6.85C97.959 6.85 98.127 6.75667 98.3417 6.57C98.9763 6.01933 99.471 5.53867 99.8257 5.128C99.9097 5.03467 99.9517 4.96467 99.9517 4.918C99.9517 4.834 99.8303 4.764 99.5877 4.708C99.5223 4.68933 99.4757 4.67067 99.4477 4.652C99.429 4.63333 99.4197 4.60533 99.4197 4.568C99.4197 4.52133 99.4477 4.484 99.5037 4.456C99.5597 4.41867 99.6343 4.4 99.7277 4.4H100.414C100.544 4.4 100.806 4.36733 101.198 4.302C101.412 4.25533 101.576 4.232 101.688 4.232C101.818 4.232 101.884 4.27867 101.884 4.372C101.884 4.47467 101.767 4.55867 101.534 4.624C101.272 4.69867 100.964 4.84333 100.61 5.058C100.526 5.114 100.292 5.30067 99.9097 5.618C99.5363 5.926 99.1723 6.234 98.8177 6.542C98.7617 6.598 98.7337 6.64467 98.7337 6.682C98.7337 6.71933 98.7477 6.752 98.7757 6.78C99.093 7.172 99.4617 7.592 99.8817 8.04C100.311 8.488 100.628 8.80533 100.834 8.992C100.974 9.132 101.142 9.26267 101.338 9.384C101.543 9.496 101.725 9.58 101.884 9.636C101.921 9.64533 101.977 9.664 102.052 9.692C102.136 9.72 102.196 9.748 102.234 9.776C102.28 9.804 102.304 9.84133 102.304 9.888C102.304 9.99067 102.21 10.042 102.024 10.042L100.89 10.028C100.255 10.0093 99.7603 10 99.4057 10C99.2377 10 99.1537 9.958 99.1537 9.874C99.1537 9.78067 99.233 9.706 99.3917 9.65C99.513 9.61267 99.6063 9.57067 99.6717 9.524C99.737 9.468 99.7697 9.40267 99.7697 9.328C99.7697 9.28133 99.737 9.216 99.6717 9.132L97.9777 7.214C97.9217 7.14867 97.875 7.116 97.8377 7.116C97.791 7.116 97.7677 7.14867 97.7677 7.214C97.7583 7.39133 97.7537 7.69 97.7537 8.11C97.7537 8.54867 97.7583 8.87533 97.7677 9.09C97.7677 9.26733 97.8097 9.398 97.8937 9.482C97.9777 9.55667 98.099 9.61733 98.2577 9.664C98.2857 9.67333 98.3277 9.68733 98.3837 9.706C98.449 9.72467 98.4957 9.748 98.5237 9.776C98.561 9.804 98.5797 9.84133 98.5797 9.888C98.5797 9.944 98.5423 9.98133 98.4677 10C98.393 10.028 98.323 10.042 98.2577 10.042C98.0243 10.042 97.8517 10.028 97.7397 10C97.5903 9.98133 97.4363 9.972 97.2777 9.972C97.119 9.972 96.9463 9.98133 96.7597 10C96.6197 10.028 96.4283 10.042 96.1857 10.042ZM102.776 10.042C102.589 10.042 102.496 10 102.496 9.916C102.496 9.85067 102.519 9.804 102.566 9.776C102.622 9.73867 102.706 9.70133 102.818 9.664C103.023 9.59867 103.173 9.53333 103.266 9.468C103.369 9.40267 103.42 9.286 103.42 9.118V5.366C103.42 5.16067 103.378 5.00667 103.294 4.904C103.21 4.80133 103.079 4.736 102.902 4.708C102.809 4.68933 102.729 4.66133 102.664 4.624C102.608 4.57733 102.58 4.52133 102.58 4.456C102.58 4.372 102.673 4.33 102.86 4.33C103.093 4.33 103.275 4.344 103.406 4.372C103.574 4.39067 103.733 4.4 103.882 4.4C104.041 4.4 104.213 4.39067 104.4 4.372C104.559 4.344 104.759 4.33 105.002 4.33C105.189 4.33 105.282 4.372 105.282 4.456C105.282 4.52133 105.249 4.57733 105.184 4.624C105.128 4.66133 105.053 4.68933 104.96 4.708C104.587 4.77333 104.4 4.99267 104.4 5.366V9.118C104.4 9.286 104.447 9.40267 104.54 9.468C104.643 9.53333 104.797 9.59867 105.002 9.664C105.114 9.70133 105.193 9.73867 105.24 9.776C105.296 9.804 105.324 9.85067 105.324 9.916C105.324 10 105.231 10.042 105.044 10.042C104.801 10.042 104.601 10.028 104.442 10C104.237 9.98133 104.059 9.972 103.91 9.972C103.761 9.972 103.583 9.98133 103.378 10C103.229 10.028 103.028 10.042 102.776 10.042ZM107.676 10.196C107.387 10.196 107.116 10.1493 106.864 10.056C106.612 9.972 106.397 9.85067 106.22 9.692C106.145 9.54267 106.094 9.16933 106.066 8.572C106.066 8.488 106.127 8.446 106.248 8.446C106.351 8.446 106.407 8.47867 106.416 8.544C106.528 8.97333 106.71 9.29533 106.962 9.51C107.223 9.71533 107.503 9.818 107.802 9.818C108.073 9.818 108.301 9.72933 108.488 9.552C108.684 9.36533 108.782 9.13667 108.782 8.866C108.782 8.62333 108.698 8.41333 108.53 8.236C108.371 8.04933 108.077 7.82067 107.648 7.55C107.163 7.25133 106.817 6.976 106.612 6.724C106.416 6.46267 106.318 6.15933 106.318 5.814C106.318 5.34733 106.481 4.96467 106.808 4.666C107.135 4.358 107.601 4.204 108.208 4.204C108.469 4.204 108.693 4.232 108.88 4.288C109.076 4.33467 109.225 4.39533 109.328 4.47C109.403 4.57267 109.463 4.736 109.51 4.96C109.566 5.17467 109.594 5.38 109.594 5.576C109.594 5.64133 109.547 5.674 109.454 5.674C109.398 5.674 109.342 5.66467 109.286 5.646C109.23 5.618 109.197 5.58533 109.188 5.548C109.057 5.23067 108.899 4.99267 108.712 4.834C108.535 4.67533 108.315 4.596 108.054 4.596C107.811 4.596 107.601 4.67067 107.424 4.82C107.247 4.96933 107.158 5.17 107.158 5.422C107.158 5.646 107.223 5.842 107.354 6.01C107.494 6.16867 107.751 6.35533 108.124 6.57C108.712 6.906 109.127 7.20933 109.37 7.48C109.613 7.74133 109.734 8.07733 109.734 8.488C109.734 8.992 109.543 9.40267 109.16 9.72C108.777 10.0373 108.283 10.196 107.676 10.196ZM110.704 10.868C110.61 10.868 110.54 10.8447 110.494 10.798C110.456 10.7607 110.452 10.714 110.48 10.658L114.638 0.928C114.684 0.834666 114.75 0.773999 114.834 0.746C114.927 0.708666 115.044 0.69 115.184 0.69C115.268 0.69 115.324 0.713333 115.352 0.76C115.389 0.806666 115.394 0.862666 115.366 0.928L111.208 10.658C111.17 10.742 111.11 10.798 111.026 10.826C110.942 10.854 110.834 10.868 110.704 10.868Z" fill="#1A202C"/>
</svg>
